#!OML:ASF F:\VICON\USERDATA\INSTALL\rory3\rory3.ASF
:FULLY-SPECIFIED
:DEGREES
2061
root 2.70729 18.1464 -1.26579 -185.525 -3.74902 179.55
lowerback 7.70236 -1.61945 -7.80459
upperback 3.43685 -3.39368 -4.85616
thorax -0.618566 -1.99405 -0.389382
lowerneck -7.42816 -4.2123 -9.44299
upperneck 26.4928 -2.18285 -0.8599
head 9.79349 -1.35073 1.18619
rclavicle 5.76476e-015 6.52014e-014
rhumerus 36.4073 -37.7676 -67.5406
rradius 54.1733
rwrist -15.8925
rhand -30.5087 -7.36601
rfingers 7.12502
rthumb -3.80867 -37.3117
lclavicle 5.76476e-015 6.52014e-014
lhumerus 7.25841 -36.5931 81.386
lradius 61.7705
lwrist -13.8979
lhand -24.4838 21.629
lfingers 7.12502
lthumb 2.01015 51.5993
rfemur -12.1515 18.3404 13.7045
rtibia 37.3506
rfoot -19.3908 -10.4323
rtoes -5.22258
lfemur 0.367011 4.71933 -2.57747
ltibia 35.284
lfoot -9.93233 9.20221
ltoes -23.3826
2062
root 2.75345 18.1615 -1.26601 -185.45 -4.33163 179.726
lowerback 7.6398 -1.49729 -7.39395
upperback 3.407 -3.18795 -4.90825
thorax -0.650317 -1.88217 -0.685286
lowerneck -7.83728 -4.05708 -9.0505
upperneck 27.4282 -1.60582 -1.48399
head 10.1816 -1.07931 0.9721
rclavicle -2.11706e-014 -2.70347e-014
rhumerus 37.3622 -37.5316 -68.1197
rradius 55.4471
rwrist -16.3717
rhand -30.785 -7.16977
rfingers 7.12502
rthumb -4.07549 -37.1105
lclavicle -2.11706e-014 -2.70347e-014
lhumerus 6.68229 -36.514 81.9106
lradius 61.3759
lwrist -13.5581
lhand -24.7027 21.0422
lfingers 7.12502
lthumb 1.79868 51.0144
rfemur -11.9203 18.0683 14.041
rtibia 37.0149
rfoot -19.2191 -10.7723
rtoes -5.32266
lfemur -0.967321 5.1348 -1.848
ltibia 36.8188
lfoot -8.22687 7.99773
ltoes -23.5879
2063
root 2.80011 18.1783 -1.26887 -185.392 -4.93879 179.909
lowerback 7.51203 -1.40235 -6.98878
upperback 3.44919 -3.01279 -4.9708
thorax -0.56698 -1.7921 -0.992386
lowerneck -7.06046 -3.74348 -8.907
upperneck 27.0069 -1.16025 -1.737
head 9.85745 -0.843089 0.918727
rclavicle 7.85199e-015 3.49861e-014
rhumerus 38.5685 -37.2238 -68.8074
rradius 56.6091
rwrist -16.3557
rhand -31.1897 -6.5242
rfingers 7.12502
rthumb -4.4663 -36.4571
lclavicle 7.85199e-015 3.49861e-014
lhumerus 6.32539 -36.5196 82.0316
lradius 61.3813
lwrist -13.1344
lhand -24.6331 20.5133
lfingers 7.12502
lthumb 1.86593 50.4849
rfemur -11.6523 17.779 14.3995
rtibia 36.679
rfoot -19.1248 -11.1342
rtoes -5.50476
lfemur -2.36132 5.49002 -1.11855
ltibia 38.3612
lfoot -6.41608 6.87551
ltoes -23.0849
2064
root 2.84159 18.1947 -1.26977 -185.356 -5.55099 180.026
lowerback 7.48875 -1.30609 -6.59292
upperback 3.45385 -2.85029 -5.03174
thorax -0.576863 -1.70481 -1.28659
lowerneck -7.01537 -3.47727 -8.4893
upperneck 27.3706 -0.50603 -2.42367
head 9.95587 -0.529235 0.687147
rclavicle 4.07509e-015 1.11319e-014
rhumerus 39.9689 -36.7185 -69.4964
rradius 57.7608
rwrist -16.3611
rhand -32.1066 -6.38422
rfingers 7.12502
rthumb -5.3517 -36.2966
lclavicle 4.07509e-015 1.11319e-014
lhumerus 5.95238 -36.2201 82.2046
lradius 61.2245
lwrist -12.994
lhand -24.3044 20.6709
lfingers 7.12502
lthumb 2.18336 50.6395
rfemur -11.3577 17.4513 14.6616
rtibia 36.3379
rfoot -19.0631 -11.3712
rtoes -5.08738
lfemur -3.74394 5.86242 -0.507989
ltibia 39.8609
lfoot -4.6244 5.80331
ltoes -22.7465
2065
root 2.88059 18.2113 -1.26788 -185.354 -6.04948 180.191
lowerback 7.51492 -1.17088 -6.10112
upperback 3.42538 -2.635 -5.10068
thorax -0.651401 -1.58772 -1.64414
lowerneck -6.73837 -3.21974 -8.45379
upperneck 27.6112 0.0433576 -2.64491
head 9.97854 -0.249006 0.672024
rclavicle -2.47487e-014 -4.13472e-014
rhumerus 41.2079 -36.1025 -70.0614
rradius 59.0068
rwrist -16.2449
rhand -32.4716 -6.47512
rfingers 7.12502
rthumb -5.70411 -36.3783
lclavicle -2.47487e-014 -4.13472e-014
lhumerus 5.43563 -36.1324 82.4874
lradius 61.2999
lwrist -12.4508
lhand -23.8626 20.7129
lfingers 7.12502
lthumb 2.6101 50.6766
rfemur -11.0856 17.2515 14.9781
rtibia 36.0007
rfoot -18.9782 -11.5733
rtoes -4.20376
lfemur -4.99456 6.23326 0.111245
ltibia 41.236
lfoot -3.00682 4.86075
ltoes -22.1209
2066
root 2.91934 18.2297 -1.26763 -185.465 -6.47382 180.091
lowerback 7.64065 -0.974373 -5.91601
upperback 3.44162 -2.38782 -5.23195
thorax -0.721459 -1.46693 -1.89845
lowerneck -6.4126 0.218163 -8.75216
upperneck 27.9346 -0.540479 -1.70547
head 9.95098 -2.32529 0.670608
rclavicle 3.57812e-015 1.46306e-013
rhumerus 42.3991 -35.3693 -70.5283
rradius 60.2749
rwrist -16.0995
rhand -32.2981 -6.41626
rfingers 7.12502
rthumb -5.53653 -36.3239
lclavicle 3.57812e-015 1.46306e-013
lhumerus 4.96864 -35.8048 82.8015
lradius 61.2637
lwrist -11.97
lhand -23.8709 20.4022
lfingers 7.12502
lthumb 2.60202 50.3661
rfemur -10.7002 17.1103 15.0548
rtibia 35.704
rfoot -18.8836 -11.8287
rtoes -3.95745
lfemur -6.02206 6.50825 0.397154
ltibia 42.4894
lfoot -1.23131 4.21241
ltoes -20.8564
2067
root 2.95442 18.2548 -1.26815 -185.571 -6.93459 179.76
lowerback 7.87525 -0.775455 -5.92855
upperback 3.44262 -2.17688 -5.42222
thorax -0.860178 -1.36956 -2.09976
lowerneck -6.29311 0.555104 -8.52704
upperneck 28.385 -0.110174 -2.02807
head 10.0767 -2.19188 0.552983
rclavicle -1.11319e-014 2.22639e-014
rhumerus 43.4455 -34.4555 -70.7639
rradius 61.638
rwrist -16.1994
rhand -31.957 -5.61049
rfingers 7.12502
rthumb -5.20717 -35.5265
lclavicle -1.11319e-014 2.22639e-014
lhumerus 4.5023 -35.3459 83.0816
lradius 61.2938
lwrist -11.527
lhand -24.0739 20.0299
lfingers 7.12502
lthumb 2.40604 49.9961
rfemur -10.3335 16.8944 14.8389
rtibia 35.4686
rfoot -18.8561 -11.9756
rtoes -3.7503
lfemur -7.00798 6.61208 0.331624
ltibia 43.6411
lfoot 0.648173 3.79253
ltoes -19.5649
2068
root 2.9879 18.2733 -1.26404 -185.478 -7.3638 179.68
lowerback 7.90048 -0.619399 -5.66829
upperback 3.41435 -1.96064 -5.53354
thorax -0.917203 -1.25959 -2.37737
lowerneck -6.41656 0.825246 -8.27836
upperneck 28.9939 0.267605 -2.41473
head 10.3155 -2.09672 0.397947
rclavicle -2.24627e-014 -4.77083e-015
rhumerus 44.501 -33.4568 -70.9074
rradius 63.035
rwrist -16.3528
rhand -31.8854 -4.30362
rfingers 7.12502
rthumb -5.13805 -34.2213
lclavicle -2.24627e-014 -4.77083e-015
lhumerus 4.15042 -34.825 83.3456
lradius 61.3448
lwrist -10.7691
lhand -24.5814 19.8773
lfingers 7.12502
lthumb 1.91584 49.8484
rfemur -10.2926 16.6752 14.8236
rtibia 35.2878
rfoot -18.784 -12.2181
rtoes -3.65999
lfemur -8.2274 6.70975 0.492441
ltibia 44.737
lfoot 2.40814 3.4668
ltoes -17.9817
2069
root 3.02077 18.2794 -1.25861 -185.415 -7.63097 179.794
lowerback 7.83277 -0.417208 -5.22455
upperback 3.47697 -1.65073 -5.60064
thorax -0.828117 -1.10368 -2.7235
lowerneck -6.52947 1.06771 -8.02288
upperneck 29.3716 0.616295 -2.64094
head 10.4692 -1.96678 0.30204
rclavicle 2.5842e-015 -3.65764e-014
rhumerus 45.7298 -32.4237 -71.1962
rradius 64.4506
rwrist -16.2879
rhand -32.9743 -3.56089
rfingers 7.12502
rthumb -6.18941 -33.4505
lclavicle 2.5842e-015 -3.65764e-014
lhumerus 3.96586 -34.3341 83.5031
lradius 61.5043
lwrist -9.64086
lhand -24.4849 20.1922
lfingers 7.12502
lthumb 2.00909 50.1625
rfemur -10.2794 16.6057 15.0471
rtibia 35.1258
rfoot -18.706 -12.4778
rtoes -3.70427
lfemur -9.3368 6.93831 0.903985
ltibia 45.7867
lfoot 4.04781 3.22212
ltoes -15.7545
2070
root 3.04884 18.2896 -1.25547 -185.412 -7.78411 179.715
lowerback 7.87346 -0.15824 -4.94854
upperback 3.53176 -1.30235 -5.71947
thorax -0.798842 -0.933803 -3.03174
lowerneck -6.53228 1.30861 -7.79023
upperneck 29.6493 0.941797 -2.78865
head 10.5659 -1.83272 0.23823
rclavicle -1.74931e-014 -4.77083e-014
rhumerus 46.7223 -31.1743 -71.226
rradius 65.778
rwrist -15.7523
rhand -34.4261 -2.97592
rfingers 7.12502
rthumb -7.59087 -32.8197
lclavicle -1.74931e-014 -4.77083e-014
lhumerus 3.75798 -33.8395 83.6541
lradius 61.6993
lwrist -8.54157
lhand -24.6897 20.4758
lfingers 7.12502
lthumb 1.81124 50.4479
rfemur -10.1777 16.6119 15.0659
rtibia 34.9518
rfoot -18.6318 -12.6319
rtoes -3.61748
lfemur -10.2286 7.24623 1.07076
ltibia 46.7627
lfoot 5.5995 3.08253
ltoes -14.0101
2071
root 3.07114 18.3069 -1.25441 -185.377 -7.96046 179.583
lowerback 7.92954 0.061971 -4.7004
upperback 3.42149 -1.00575 -5.83133
thorax -0.944826 -0.780881 -3.31163
lowerneck -6.20895 1.61709 -7.68634
upperneck 30.0038 1.26811 -2.85238
head 10.6277 -1.72582 0.22256
rclavicle 1.35174e-014 -2.38542e-014
rhumerus 47.3241 -29.6822 -70.9374
rradius 67.0356
rwrist -14.7939
rhand -34.96 -2.42864
rfingers 7.12502
rthumb -8.10612 -32.2532
lclavicle 1.35174e-014 -2.38542e-014
lhumerus 3.2122 -33.2958 84.0299
lradius 61.8773
lwrist -7.55884
lhand -25.514 20.4399
lfingers 7.12502
lthumb 1.0151 50.4173
rfemur -10.0591 16.5376 14.996
rtibia 34.7515
rfoot -18.5331 -12.7508
rtoes -3.64542
lfemur -11.0841 7.47419 1.10847
ltibia 47.6233
lfoot 6.91319 2.81867
ltoes -14.0913
